<?xml version="1.0" standalone="no"?>
<!DOCTYPE svg PUBLIC "-//W3C//DTD SVG 20010904//EN"
 "http://www.w3.org/TR/2001/REC-SVG-20010904/DTD/svg10.dtd">
<svg version="1.0" xmlns="http://www.w3.org/2000/svg"
 width="200.000000pt" height="200.000000pt" viewBox="0 0 200.000000 200.000000"
 preserveAspectRatio="xMidYMid meet">

<g transform="translate(0.000000,200.000000) scale(0.100000,-0.100000)"
fill="#000000" stroke="none">
<path d="M900 1993 c-128 -13 -287 -66 -403 -135 -72 -42 -205 -150 -214 -174
-3 -8 4 -23 16 -33 11 -10 21 -22 21 -27 0 -11 6 -14 131 -76 53 -27 101 -48
107 -48 23 0 22 -22 -2 -89 -27 -74 -29 -108 -9 -115 7 -3 13 -12 13 -21 0 -8
5 -15 10 -15 6 0 10 7 10 14 0 18 47 166 58 183 5 8 27 7 86 -7 43 -11 117
-22 162 -26 l84 -7 0 -193 0 -194 -115 0 c-67 0 -115 -4 -115 -10 0 -5 10 -18
22 -30 19 -17 35 -20 115 -20 l93 0 0 -145 c0 -173 -2 -155 24 -181 11 -11 22
-27 24 -35 6 -28 52 -59 90 -59 39 0 220 -35 230 -44 8 -8 -27 -81 -71 -150
l-38 -59 20 -20 20 -20 20 24 c11 13 41 63 66 112 26 48 52 87 60 87 16 0 202
-92 230 -115 19 -15 18 -17 -42 -73 -48 -46 -193 -140 -236 -155 -5 -1 -4 -15
2 -30 l11 -27 72 36 c102 51 150 86 244 176 315 302 391 767 191 1163 -181
359 -585 580 -987 538z m-83 -135 c-74 -87 -127 -161 -171 -241 -35 -63 -40
-68 -64 -62 -40 9 -232 105 -232 116 0 17 162 130 244 169 85 41 202 78 249
79 29 1 28 1 -26 -61z m473 27 c119 -40 233 -105 316 -177 19 -17 34 -34 34
-39 0 -8 -188 -103 -226 -114 -18 -5 -28 7 -70 81 -26 47 -86 131 -132 186
l-84 101 46 -7 c26 -4 78 -18 116 -31z m-325 -403 c-6 -7 -177 14 -244 30 -40
9 -50 15 -46 27 21 55 123 198 200 279 l90 95 3 -213 c1 -117 0 -215 -3 -218z
m246 238 c51 -67 117 -185 109 -193 -8 -8 -150 -35 -222 -42 l-68 -7 0 218 0
218 66 -64 c36 -36 88 -94 115 -130z m535 -162 c103 -141 184 -357 184 -495
l0 -33 -207 2 -208 3 -7 80 c-8 103 -33 221 -63 304 -13 36 -23 66 -22 67 1 1
36 16 77 33 41 17 100 46 130 65 30 19 58 35 63 35 4 1 28 -27 53 -61z m-354
-191 c28 -88 58 -244 58 -304 l0 -33 -210 0 -210 0 0 194 0 193 83 7 c45 3
109 13 142 20 104 24 105 23 137 -77z m58 -429 c-1 -77 -39 -271 -69 -350
l-10 -26 -78 20 c-43 10 -120 20 -170 21 l-93 2 0 183 0 182 210 0 210 0 0
-32z m477 -34 c-14 -147 -66 -290 -153 -420 -30 -46 -58 -84 -61 -84 -3 0 -17
9 -32 19 -30 22 -205 111 -218 111 -30 1 -32 18 -8 93 29 89 55 230 55 292 0
23 3 45 7 48 3 4 98 7 211 7 l205 0 -6 -66z"/>
</g>
</svg>
